<svg xmlns="http://www.w3.org/2000/svg" width="72" height="69" viewBox="0 0 72 69.2"><path d="M36.2.2c-3.4 0-6.4 1.4-8.6 3.6C25.4 6 24 9.1 24 12.4c0 2.1.5 5.2 1.4 8.5-2.7-2.1-5.4-3.8-7.3-4.6-3.1-1.3-6.4-1.3-9.3-.1-2.9 1.2-5.3 3.4-6.7 6.5C.8 25.8.8 29.1 2 32c.4 1 1 2 1.6 2.9-.8.8-1.5 1.7-2 2.6-1.6 2.7-2.1 6-1.2 9.3.9 3.3 3 5.8 5.7 7.4 2.7 1.6 6 2.1 9.3 1.2 3.8-1 11-4.9 15.9-9.3-3.3 6-8 16.7-10.5 32.1l3.5.6c2.5-15.5 7.2-25.9 10.3-31.4 1.2 6.4 4.4 13.9 6.8 17 2 2.7 5 4.3 8 4.7 3.1.4 6.3-.3 9-2.3 2.7-2 4.3-4.9 4.7-8 .2-1.1.2-2.2 0-3.3 1.1-.3 2.1-.7 3.1-1.2 2.7-1.6 4.8-4.2 5.7-7.4.9-3.3.3-6.6-1.2-9.3-1.6-2.7-4.2-4.8-7.4-5.7-2-.5-5.1-.8-8.6-.8 2.8-2.1 5.1-4.2 6.4-5.9 2.1-2.7 2.9-5.9 2.5-9-.4-3.1-1.9-6.1-4.6-8.1-2.7-2.1-5.9-2.9-9-2.5-1.1.1-2.2.4-3.2.8-.5-1-1.2-1.8-2-2.6C42.6 1.5 39.6.2 36.2.2z" fill="#020202"/></svg>