<svg xmlns="http://www.w3.org/2000/svg" width="58" height="72" viewBox="0 0 58.4 72"><path d="M54.5 14h-.6c-2 .2-3.6 2.1-3.6 4.1v12.8c0 1-.5 2-1.6 2s-2.3-1-2.3-2.1V10.1C46.4 8 45.1 6.2 43 6h-.6c-2.2 0-4.1 1.8-4.1 4v20.8c0 1.1-.7 1.9-1.8 1.9s-1.8-.9-1.8-2V4.3c0-2.1-1.5-3.9-3.5-4.1h-.5c-2.2 0-4.1 1.8-4.1 4v26.6c0 1.1-.9 2-2 2s-1.9-.9-1.9-1.9V10.1c0-2.1-1.4-3.9-3.5-4.1h-.6c-2.2 0-4.1 1.8-4.1 4v30c0 1.1-.8 1.9-1.7 1.9-.4 0-.8-.2-1.2-.5l-4.7-4.5c-.8-.8-1.8-1.2-2.8-1.2-1 0-2 .4-2.8 1.2-1.5 1.6-1.5 4.1 0 5.6l17 22.4.4 5.6c.1.9.8 1.5 1.7 1.5h29.5c.9 0 1.6-.6 1.7-1.4l.8-5.9c0-.3 0-.5.1-.7 4.5-7 5.9-18.7 5.9-31.3V18c0-2.2-1.7-4-3.9-4z"/></svg>