<svg xmlns="http://www.w3.org/2000/svg" width="72" height="72"><path d="M69.5 40c1.7-1.9 2.5-4.3 2.5-7 0-2.4-.9-4.5-2.6-6.3-1.7-1.8-3.7-2.7-6.1-2.7H50.9c.1-.4.2-.8.4-1.1.1-.3.3-.7.5-1s.4-.7.4-.8c.5-1.1 1-1.9 1.2-2.6.3-.7.6-1.6.9-2.8.3-1.2.4-2.4.4-3.6v-1.8c0-.5-.1-1.2-.2-2.1-.1-.9-.3-1.7-.5-2.3-.3-.7-.6-1.4-1.1-2.2-.5-.8-1.1-1.4-1.8-1.9S49.5.9 48.4.6C47.3.3 46.1.1 44.7.1c-.8 0-1.5.3-2 .9-.6.6-1.1 1.4-1.5 2.3-.4.9-.7 1.7-.9 2.4s-.4 1.6-.6 2.9c-.3 1.3-.5 2.3-.6 2.8-.1.6-.4 1.3-.8 2.3-.4.9-.9 1.7-1.4 2.2-1 1-2.5 2.9-4.5 5.6-1.5 2-3 3.9-4.5 5.7-1.6 1.8-2.7 2.7-3.4 2.8-.7.1-1.4.4-1.9 1s-.8 1.3-.8 2v30c0 .8.3 1.5.9 2.1.6.6 1.2.9 2 .9 1.1 0 3.4.7 7.1 2.1 2.3.8 4.1 1.4 5.4 1.8 1.3.4 3.1.9 5.5 1.4 2.2.5 4.3.7 6.3.7H54.8c4-.1 6.9-1.3 8.9-3.6 1.7-2.2 2.5-5 2.2-8.5 1.2-1.2 2-2.6 2.4-4.4.5-1.9.5-3.7 0-5.5 1.4-1.9 2-4 1.9-6.4 0-1-.2-2.2-.7-3.6zM15.9 30.1H3c-.8 0-1.5.3-2 .9-.6.6-.9 1.3-.9 2.1v30c0 .8.3 1.5.9 2.1.6.6 1.2.9 2 .9h12.9c.8 0 1.5-.3 2-.9.6-.6.9-1.3.9-2.1V33c0-.8-.3-1.5-.9-2.1-.5-.5-1.2-.8-2-.8z"/></svg>